<svg width="159" height="38" viewBox="0 0 159 38" fill="none" xmlns="http://www.w3.org/2000/svg">
<path d="M10.8077 3.09784C14.8439 3.09784 17.9687 4.21756 20.1821 6.457C22.3955 8.6704 23.5022 11.8473 23.5022 15.9876C23.5022 20.102 22.3955 23.2788 20.1821 25.5183C17.9687 27.7577 14.8439 28.8774 10.8077 28.8774H0.847441V3.09784H10.8077ZM10.5343 24.5808C12.9821 24.5808 14.8179 23.8517 16.0418 22.3935C17.2917 20.9092 17.9167 18.7739 17.9167 15.9876C17.9167 13.2014 17.2917 11.0791 16.0418 9.62086C14.8179 8.13658 12.9821 7.39444 10.5343 7.39444H6.23772V24.5808H10.5343ZM30.9557 6.53512C29.836 6.53512 29.0027 6.30076 28.4558 5.83204C27.909 5.33728 27.6356 4.62118 27.6356 3.68374C27.6356 2.72026 27.909 2.00416 28.4558 1.53544C29.0027 1.04068 29.836 0.793299 30.9557 0.793299C32.0754 0.793299 32.9087 1.04068 33.4555 1.53544C34.0024 2.00416 34.2758 2.72026 34.2758 3.68374C34.2758 4.62118 34.0024 5.33728 33.4555 5.83204C32.9087 6.30076 32.0754 6.53512 30.9557 6.53512ZM33.6118 9.34744V28.8774H28.2605V9.34744H33.6118ZM57.291 4.6993L57.9159 8.52718C57.8118 8.52718 57.6946 8.52718 57.5644 8.52718C57.4602 8.50114 57.3431 8.48812 57.2129 8.48812C56.0411 8.48812 55.1427 8.76154 54.5177 9.30838C53.9188 9.82918 53.6193 10.5583 53.6193 11.4957L51.432 10.5974C51.432 9.55576 51.6403 8.59228 52.0569 7.70692C52.4736 6.79552 53.0855 6.0664 53.8928 5.51956C54.726 4.97272 55.7156 4.6993 56.8613 4.6993C56.9134 4.6993 56.9785 4.6993 57.0566 4.6993C57.1347 4.6993 57.2129 4.6993 57.291 4.6993ZM50.8851 25.2058C52.9944 25.2058 54.6219 25.6615 55.7676 26.5729C56.9134 27.4843 57.4863 28.7603 57.4863 30.4008C57.4863 31.8851 57.0566 33.135 56.1973 34.1505C55.338 35.1921 54.1271 35.9733 52.5647 36.4941C51.0284 37.0149 49.2446 37.2753 47.2135 37.2753C43.8543 37.2753 41.3936 36.8066 39.8312 35.8692C38.2948 34.9317 37.5266 33.7079 37.5266 32.1975C37.5266 31.1299 37.9302 30.2315 38.7375 29.5024C39.5708 28.7733 40.9379 28.3697 42.8388 28.2915L42.6435 28.9165C41.2894 28.6821 40.2478 28.2395 39.5187 27.5885C38.8156 26.9114 38.4641 25.987 38.4641 24.8152C38.4641 23.6174 38.9198 22.6409 39.8312 21.8857C40.7686 21.1045 42.0315 20.6488 43.62 20.5186L45.9636 21.6123H45.4167C44.297 21.6904 43.5028 21.9248 43.0341 22.3154C42.5914 22.6799 42.3701 23.0966 42.3701 23.5653C42.3701 24.1121 42.5784 24.5288 42.995 24.8152C43.4377 25.0756 44.0627 25.2058 44.8699 25.2058H50.8851ZM47.2526 33.6037C48.6066 33.6037 49.7133 33.4865 50.5727 33.2522C51.458 33.0178 52.109 32.7183 52.5257 32.3538C52.9683 31.9892 53.1897 31.5856 53.1897 31.1429C53.1897 30.6482 52.9944 30.2445 52.6038 29.9321C52.2132 29.6456 51.5101 29.5024 50.4945 29.5024H43.8934C43.2684 29.5024 42.7476 29.6586 42.331 29.9711C41.9404 30.2836 41.7451 30.7133 41.7451 31.2601C41.7451 31.9892 42.2268 32.5621 43.1903 32.9787C44.1798 33.3954 45.5339 33.6037 47.2526 33.6037ZM47.2916 8.95684C49.1144 8.95684 50.6898 9.23026 52.0179 9.7771C53.372 10.2979 54.4005 11.0531 55.1036 12.0426C55.8327 13.0321 56.1973 14.2169 56.1973 15.597C56.1973 16.9511 55.8327 18.1229 55.1036 19.1124C54.4005 20.102 53.372 20.8701 52.0179 21.417C50.6898 21.9378 49.1144 22.1982 47.2916 22.1982C44.4012 22.1982 42.1878 21.6123 40.6514 20.4405C39.1151 19.2426 38.3469 17.6282 38.3469 15.597C38.3469 14.2169 38.7114 13.0321 39.4406 12.0426C40.1697 11.0531 41.1983 10.2979 42.5263 9.7771C43.8543 9.23026 45.4428 8.95684 47.2916 8.95684ZM47.2916 12.316C46.25 12.316 45.3907 12.6024 44.7137 13.1753C44.0366 13.7482 43.6981 14.5424 43.6981 15.558C43.6981 16.5735 44.0366 17.3808 44.7137 17.9797C45.3907 18.5526 46.25 18.839 47.2916 18.839C48.3332 18.839 49.1795 18.5526 49.8305 17.9797C50.5076 17.3808 50.8461 16.5735 50.8461 15.558C50.8461 14.5424 50.5076 13.7482 49.8305 13.1753C49.1795 12.6024 48.3332 12.316 47.2916 12.316ZM63.4167 6.53512C62.297 6.53512 61.4637 6.30076 60.9168 5.83204C60.37 5.33728 60.0966 4.62118 60.0966 3.68374C60.0966 2.72026 60.37 2.00416 60.9168 1.53544C61.4637 1.04068 62.297 0.793299 63.4167 0.793299C64.5364 0.793299 65.3697 1.04068 65.9165 1.53544C66.4634 2.00416 66.7368 2.72026 66.7368 3.68374C66.7368 4.62118 66.4634 5.33728 65.9165 5.83204C65.3697 6.30076 64.5364 6.53512 63.4167 6.53512ZM66.0728 9.34744V28.8774H60.7215V9.34744H66.0728Z" fill="#FF5300"/>
<path d="M80.8072 29.268C78.7501 29.268 76.9533 28.8644 75.417 28.0572C73.9066 27.2499 72.7348 26.0912 71.9016 24.5808C71.0683 23.0705 70.6516 21.2477 70.6516 19.1124C70.6516 16.9772 71.0683 15.1544 71.9016 13.644C72.7348 12.1337 73.8936 10.9749 75.3779 10.1677C76.8882 9.36046 78.6069 8.95684 80.5338 8.95684C82.5129 8.95684 84.1924 9.36046 85.5726 10.1677C86.9527 10.9489 88.0073 12.0296 88.7364 13.4097C89.4655 14.7638 89.8301 16.3131 89.8301 18.0578C89.8301 18.5786 89.8171 19.0734 89.791 19.5421C89.765 20.0108 89.7259 20.4275 89.6739 20.792H74.0889V17.0813H87.3303L84.7523 18.0188C84.7523 16.3782 84.3747 15.1153 83.6196 14.2299C82.8904 13.3446 81.8488 12.9019 80.4948 12.9019C79.5052 12.9019 78.6459 13.1363 77.9168 13.605C77.2137 14.0737 76.6799 14.7768 76.3153 15.7142C75.9508 16.6256 75.7685 17.7844 75.7685 19.1906C75.7685 20.5707 75.9638 21.7164 76.3544 22.6278C76.771 23.5132 77.3439 24.1772 78.073 24.6199C78.8282 25.0626 79.7266 25.2839 80.7682 25.2839C81.9139 25.2839 82.8384 25.0626 83.5414 24.6199C84.2445 24.1772 84.7914 23.5653 85.182 22.7841L89.4395 24.4246C89.0229 25.4402 88.3849 26.3125 87.5256 27.0416C86.6923 27.7707 85.6897 28.3306 84.5179 28.7212C83.3722 29.0858 82.1353 29.268 80.8072 29.268ZM94.365 28.8774V9.34744H99.1694L99.4819 15.2064L98.8179 14.5815C99.1303 13.3055 99.6251 12.2639 100.302 11.4567C100.979 10.6234 101.799 9.99844 102.763 9.5818C103.752 9.16516 104.833 8.95684 106.005 8.95684C107.359 8.95684 108.557 9.21724 109.598 9.73804C110.666 10.2588 111.499 11.0531 112.098 12.1207C112.723 13.1623 113.036 14.4773 113.036 16.0658V28.8774H107.684V17.5891C107.684 15.9225 107.359 14.7768 106.708 14.1518C106.057 13.5008 105.211 13.1753 104.169 13.1753C103.44 13.1753 102.724 13.3576 102.021 13.7222C101.344 14.0607 100.784 14.6205 100.341 15.4017C99.9246 16.1829 99.7162 17.2245 99.7162 18.5265V28.8774H94.365ZM127.415 8.95684C129.16 8.95684 130.631 9.21724 131.829 9.73804C133.053 10.2328 134.029 10.9229 134.759 11.8082C135.514 12.6675 136.048 13.631 136.36 14.6987L131.36 16.4954C131.1 15.3236 130.657 14.4383 130.032 13.8393C129.407 13.2404 128.561 12.941 127.493 12.941C126.504 12.941 125.658 13.1753 124.954 13.644C124.251 14.0867 123.718 14.7768 123.353 15.7142C122.988 16.6256 122.806 17.7714 122.806 19.1515C122.806 20.5316 122.988 21.6774 123.353 22.5888C123.744 23.5002 124.29 24.1772 124.994 24.6199C125.723 25.0626 126.569 25.2839 127.532 25.2839C128.314 25.2839 128.978 25.1537 129.525 24.8933C130.071 24.6069 130.514 24.2033 130.853 23.6825C131.217 23.1617 131.464 22.5367 131.595 21.8076L136.438 23.37C136.152 24.5418 135.618 25.5704 134.837 26.4557C134.055 27.3411 133.053 28.0311 131.829 28.5259C130.605 29.0207 129.186 29.268 127.572 29.268C125.566 29.268 123.796 28.8644 122.259 28.0572C120.723 27.2499 119.538 26.0912 118.705 24.5808C117.872 23.0705 117.455 21.2477 117.455 19.1124C117.455 16.9772 117.872 15.1544 118.705 13.644C119.538 12.1337 120.71 10.9749 122.22 10.1677C123.731 9.36046 125.462 8.95684 127.415 8.95684ZM158.459 9.34744L150.568 30.0883C149.943 31.859 149.24 33.2652 148.459 34.3068C147.704 35.3484 146.819 36.1035 145.803 36.5723C144.814 37.041 143.629 37.2753 142.249 37.2753C141.233 37.2753 140.296 37.1451 139.436 36.8847C138.603 36.6504 137.874 36.3379 137.249 35.9473L138.382 32.0804C138.876 32.471 139.397 32.7444 139.944 32.9006C140.491 33.0829 141.116 33.174 141.819 33.174C142.548 33.174 143.173 33.0178 143.694 32.7053C144.241 32.3928 144.696 31.7679 145.061 30.8304L145.725 29.1509L143.577 24.0731L137.6 9.34744H143.538L147.248 21.0654L148.264 24.9714L149.475 20.8311L153.029 9.34744H158.459Z" fill="white"/>
</svg>
