<svg width="186" height="50" viewBox="0 0 186 50" fill="none" xmlns="http://www.w3.org/2000/svg">
<g clip-path="url(#clip0)">
<path d="M19.8077 7.09796C23.8439 7.09796 26.9687 8.21768 29.1821 10.4571C31.3955 12.6705 32.5022 15.8474 32.5022 19.9878C32.5022 24.1021 31.3955 27.279 29.1821 29.5184C26.9687 31.7578 23.8439 32.8776 19.8077 32.8776H9.84744V7.09796H19.8077ZM19.5343 28.581C21.9821 28.581 23.8179 27.8518 25.0418 26.3936C26.2917 24.9093 26.9167 22.774 26.9167 19.9878C26.9167 17.2015 26.2917 15.0792 25.0418 13.621C23.8179 12.1367 21.9821 11.3946 19.5343 11.3946H15.2377V28.581H19.5343ZM39.9557 10.5352C38.836 10.5352 38.0027 10.3009 37.4558 9.83216C36.909 9.3374 36.6356 8.6213 36.6356 7.68386C36.6356 6.72038 36.909 6.00428 37.4558 5.53556C38.0027 5.0408 38.836 4.79342 39.9557 4.79342C41.0754 4.79342 41.9087 5.0408 42.4555 5.53556C43.0024 6.00428 43.2758 6.72038 43.2758 7.68386C43.2758 8.6213 43.0024 9.3374 42.4555 9.83216C41.9087 10.3009 41.0754 10.5352 39.9557 10.5352ZM42.6118 13.3476V32.8776H37.2605V13.3476H42.6118ZM66.291 8.69942L66.9159 12.5273C66.8118 12.5273 66.6946 12.5273 66.5644 12.5273C66.4602 12.5013 66.3431 12.4882 66.2129 12.4882C65.0411 12.4882 64.1427 12.7617 63.5177 13.3085C62.9188 13.8293 62.6193 14.5584 62.6193 15.4959L60.432 14.5975C60.432 13.5559 60.6403 12.5924 61.0569 11.707C61.4736 10.7956 62.0855 10.0665 62.8928 9.51968C63.726 8.97284 64.7156 8.69942 65.8613 8.69942C65.9134 8.69942 65.9785 8.69942 66.0566 8.69942C66.1347 8.69942 66.2129 8.69942 66.291 8.69942ZM59.8851 29.2059C61.9944 29.2059 63.6219 29.6616 64.7676 30.573C65.9134 31.4844 66.4863 32.7604 66.4863 34.4009C66.4863 35.8852 66.0566 37.1351 65.1973 38.1507C64.338 39.1923 63.1271 39.9735 61.5647 40.4943C60.0284 41.0151 58.2446 41.2755 56.2135 41.2755C52.8543 41.2755 50.3936 40.8067 48.8312 39.8693C47.2948 38.9319 46.5266 37.708 46.5266 36.1977C46.5266 35.13 46.9302 34.2316 47.7375 33.5025C48.5708 32.7734 49.9379 32.3698 51.8388 32.2917L51.6435 32.9166C50.2894 32.6823 49.2478 32.2396 48.5187 31.5886C47.8156 30.9115 47.4641 29.9871 47.4641 28.8153C47.4641 27.6175 47.9198 26.641 48.8312 25.8858C49.7686 25.1046 51.0315 24.6489 52.62 24.5187L54.9636 25.6124H54.4167C53.297 25.6905 52.5028 25.9249 52.0341 26.3155C51.5914 26.68 51.3701 27.0967 51.3701 27.5654C51.3701 28.1122 51.5784 28.5289 51.995 28.8153C52.4377 29.0757 53.0627 29.2059 53.8699 29.2059H59.8851ZM56.2526 37.6038C57.6066 37.6038 58.7133 37.4866 59.5727 37.2523C60.458 37.0179 61.109 36.7185 61.5257 36.3539C61.9683 35.9893 62.1897 35.5857 62.1897 35.143C62.1897 34.6483 61.9944 34.2447 61.6038 33.9322C61.2132 33.6457 60.5101 33.5025 59.4945 33.5025H52.8934C52.2684 33.5025 51.7476 33.6588 51.331 33.9712C50.9404 34.2837 50.7451 34.7134 50.7451 35.2602C50.7451 35.9893 51.2268 36.5622 52.1903 36.9789C53.1798 37.3955 54.5339 37.6038 56.2526 37.6038ZM56.2916 12.957C58.1144 12.957 59.6898 13.2304 61.0179 13.7772C62.372 14.298 63.4005 15.0532 64.1036 16.0427C64.8327 17.0322 65.1973 18.217 65.1973 19.5972C65.1973 20.9512 64.8327 22.123 64.1036 23.1126C63.4005 24.1021 62.372 24.8703 61.0179 25.4171C59.6898 25.9379 58.1144 26.1983 56.2916 26.1983C53.4012 26.1983 51.1878 25.6124 49.6514 24.4406C48.1151 23.2428 47.3469 21.6283 47.3469 19.5972C47.3469 18.217 47.7114 17.0322 48.4406 16.0427C49.1697 15.0532 50.1983 14.298 51.5263 13.7772C52.8543 13.2304 54.4428 12.957 56.2916 12.957ZM56.2916 16.3161C55.25 16.3161 54.3907 16.6026 53.7137 17.1754C53.0366 17.7483 52.6981 18.5425 52.6981 19.5581C52.6981 20.5737 53.0366 21.3809 53.7137 21.9798C54.3907 22.5527 55.25 22.8391 56.2916 22.8391C57.3332 22.8391 58.1795 22.5527 58.8305 21.9798C59.5076 21.3809 59.8461 20.5737 59.8461 19.5581C59.8461 18.5425 59.5076 17.7483 58.8305 17.1754C58.1795 16.6026 57.3332 16.3161 56.2916 16.3161ZM72.4167 10.5352C71.297 10.5352 70.4637 10.3009 69.9168 9.83216C69.37 9.3374 69.0966 8.6213 69.0966 7.68386C69.0966 6.72038 69.37 6.00428 69.9168 5.53556C70.4637 5.0408 71.297 4.79342 72.4167 4.79342C73.5364 4.79342 74.3697 5.0408 74.9165 5.53556C75.4634 6.00428 75.7368 6.72038 75.7368 7.68386C75.7368 8.6213 75.4634 9.3374 74.9165 9.83216C74.3697 10.3009 73.5364 10.5352 72.4167 10.5352ZM75.0728 13.3476V32.8776H69.7215V13.3476H75.0728Z" fill="#FF5300"/>
<path d="M89.8072 33.2682C87.7501 33.2682 85.9533 32.8645 84.417 32.0573C82.9066 31.2501 81.7348 30.0913 80.9016 28.581C80.0683 27.0706 79.6516 25.2478 79.6516 23.1126C79.6516 20.9773 80.0683 19.1545 80.9016 17.6442C81.7348 16.1338 82.8936 14.9751 84.3779 14.1678C85.8882 13.3606 87.6069 12.957 89.5338 12.957C91.5129 12.957 93.1924 13.3606 94.5726 14.1678C95.9527 14.949 97.0073 16.0297 97.7364 17.4098C98.4655 18.7639 98.8301 20.3133 98.8301 22.0579C98.8301 22.5787 98.8171 23.0735 98.791 23.5422C98.765 24.0109 98.7259 24.4276 98.6739 24.7921H83.0889V21.0814H96.3303L93.7523 22.0189C93.7523 20.3784 93.3747 19.1154 92.6196 18.2301C91.8904 17.3447 90.8488 16.902 89.4948 16.902C88.5052 16.902 87.6459 17.1364 86.9168 17.6051C86.2137 18.0738 85.6799 18.7769 85.3153 19.7143C84.9508 20.6257 84.7685 21.7845 84.7685 23.1907C84.7685 24.5708 84.9638 25.7166 85.3544 26.628C85.771 27.5133 86.3439 28.1773 87.073 28.62C87.8282 29.0627 88.7266 29.284 89.7682 29.284C90.9139 29.284 91.8384 29.0627 92.5414 28.62C93.2445 28.1773 93.7914 27.5654 94.182 26.7842L98.4395 28.4247C98.0229 29.4403 97.3849 30.3126 96.5256 31.0417C95.6923 31.7709 94.6897 32.3307 93.5179 32.7213C92.3722 33.0859 91.1353 33.2682 89.8072 33.2682ZM103.365 32.8776V13.3476H108.169L108.482 19.2066L107.818 18.5816C108.13 17.3056 108.625 16.264 109.302 15.4568C109.979 14.6235 110.799 13.9986 111.763 13.5819C112.752 13.1653 113.833 12.957 115.005 12.957C116.359 12.957 117.557 13.2174 118.598 13.7382C119.666 14.259 120.499 15.0532 121.098 16.1208C121.723 17.1624 122.036 18.4774 122.036 20.0659V32.8776H116.684V21.5892C116.684 19.9227 116.359 18.7769 115.708 18.1519C115.057 17.5009 114.211 17.1754 113.169 17.1754C112.44 17.1754 111.724 17.3577 111.021 17.7223C110.344 18.0608 109.784 18.6207 109.341 19.4019C108.925 20.1831 108.716 21.2247 108.716 22.5267V32.8776H103.365ZM136.415 12.957C138.16 12.957 139.631 13.2174 140.829 13.7382C142.053 14.2329 143.029 14.923 143.759 15.8083C144.514 16.6677 145.048 17.6311 145.36 18.6988L140.36 20.4955C140.1 19.3237 139.657 18.4384 139.032 17.8395C138.407 17.2405 137.561 16.9411 136.493 16.9411C135.504 16.9411 134.658 17.1754 133.954 17.6442C133.251 18.0868 132.718 18.7769 132.353 19.7143C131.988 20.6257 131.806 21.7715 131.806 23.1516C131.806 24.5317 131.988 25.6775 132.353 26.5889C132.744 27.5003 133.29 28.1773 133.994 28.62C134.723 29.0627 135.569 29.284 136.532 29.284C137.314 29.284 137.978 29.1538 138.525 28.8934C139.071 28.607 139.514 28.2034 139.853 27.6826C140.217 27.1618 140.464 26.5368 140.595 25.8077L145.438 27.3701C145.152 28.5419 144.618 29.5705 143.837 30.4558C143.055 31.3412 142.053 32.0313 140.829 32.526C139.605 33.0208 138.186 33.2682 136.572 33.2682C134.566 33.2682 132.796 32.8645 131.259 32.0573C129.723 31.2501 128.538 30.0913 127.705 28.581C126.872 27.0706 126.455 25.2478 126.455 23.1126C126.455 20.9773 126.872 19.1545 127.705 17.6442C128.538 16.1338 129.71 14.9751 131.22 14.1678C132.731 13.3606 134.462 12.957 136.415 12.957ZM167.459 13.3476L159.568 34.0884C158.943 35.8591 158.24 37.2653 157.459 38.3069C156.704 39.3485 155.819 40.1037 154.803 40.5724C153.814 41.0411 152.629 41.2755 151.249 41.2755C150.233 41.2755 149.296 41.1453 148.436 40.8849C147.603 40.6505 146.874 40.338 146.249 39.9474L147.382 36.0805C147.876 36.4711 148.397 36.7445 148.944 36.9007C149.491 37.083 150.116 37.1742 150.819 37.1742C151.548 37.1742 152.173 37.0179 152.694 36.7054C153.241 36.393 153.696 35.768 154.061 34.8306L154.725 33.151L152.577 28.0732L146.6 13.3476H152.538L156.248 25.0656L157.264 28.9716L158.475 24.8312L162.029 13.3476H167.459Z" fill="#373737"/>
</g>
<defs>
<clipPath id="clip0">
<rect width="186" height="50" fill="white"/>
</clipPath>
</defs>
</svg>
