<svg width="162" height="26" viewBox="0 0 162 26" fill="none" xmlns="http://www.w3.org/2000/svg">
<path d="M149.04 15.8773L152.082 17.7406L151.255 14.2631L153.963 11.9372L150.41 11.6512L149.04 8.35025V15.8773ZM149.04 18.4166L142.692 22.3058L144.418 15.0474L138.769 10.1941L146.183 9.59825L149.04 2.70825L151.897 9.59825L159.312 10.1941L153.662 15.0474L155.388 22.3058L149.04 18.4166Z" fill="#FF5300"/>
<path d="M12.96 18.4166L6.61177 22.3058L8.33761 15.0474L2.68921 10.1941L10.1034 9.59825L12.96 2.70825L15.8166 9.59825L23.2319 10.1941L17.5824 15.0474L19.3082 22.3058L12.96 18.4166Z" fill="#FF5300"/>
<path d="M46.98 18.4166L40.6318 22.3058L42.3576 15.0474L36.7092 10.1941L44.1234 9.59825L46.98 2.70825L49.8366 9.59825L57.2519 10.1941L51.6024 15.0474L53.3283 22.3058L46.98 18.4166Z" fill="#FF5300"/>
<path d="M81 18.4166L74.6518 22.3058L76.3776 15.0474L70.7292 10.1941L78.1434 9.59825L81 2.70825L83.8566 9.59825L91.2719 10.1941L85.6224 15.0474L87.3483 22.3058L81 18.4166Z" fill="#FF5300"/>
<path d="M115.02 18.4166L108.672 22.3058L110.398 15.0474L104.749 10.1941L112.163 9.59825L115.02 2.70825L117.877 9.59825L125.292 10.1941L119.642 15.0474L121.368 22.3058L115.02 18.4166Z" fill="#FF5300"/>
</svg>
