<svg width="38" height="38" viewBox="0 0 38 38" fill="none" xmlns="http://www.w3.org/2000/svg">
<path d="M14.8333 0.25V4.41667H4.41667V33.5833H33.5833V23.1667H37.75V35.6667C37.75 36.2192 37.5305 36.7491 37.1398 37.1398C36.7491 37.5305 36.2192 37.75 35.6667 37.75H2.33333C1.7808 37.75 1.25089 37.5305 0.860194 37.1398C0.469493 36.7491 0.25 36.2192 0.25 35.6667V2.33333C0.25 1.7808 0.469493 1.25089 0.860194 0.860194C1.25089 0.469493 1.7808 0.25 2.33333 0.25H14.8333ZM30.6375 4.41667H21.0833V0.25H37.75V16.9167H33.5833V7.3625L19 21.9458L16.0542 19L30.6375 4.41667Z" fill="white"/>
</svg>
